<?xml version="1.0" standalone="no"?>
<!DOCTYPE svg PUBLIC "-//W3C//DTD SVG 20010904//EN"
 "http://www.w3.org/TR/2001/REC-SVG-20010904/DTD/svg10.dtd">
<svg version="1.0" xmlns="http://www.w3.org/2000/svg"
 width="1024.000000pt" height="1024.000000pt" viewBox="0 0 1024.000000 1024.000000"
 preserveAspectRatio="xMidYMid meet">
<metadata>
Created by potrace 1.14, written by Peter Selinger 2001-2017
</metadata>
<g transform="translate(0.000000,1024.000000) scale(0.100000,-0.100000)"
fill="#000000" stroke="none">
<path d="M6950 10237 c-3 -3 -21 -7 -40 -10 -89 -12 -225 -81 -305 -155 -150
-138 -231 -365 -199 -557 3 -22 7 -50 7 -62 1 -13 4 -23 8 -23 4 0 10 -15 13
-34 8 -43 72 -159 109 -199 15 -16 27 -30 27 -31 0 -1 189 -191 419 -421 231
-230 417 -423 414 -428 -2 -4 -11 -3 -18 3 -9 8 -15 8 -20 0 -4 -7 -12 -7 -25
0 -12 6 -21 7 -25 0 -4 -6 -15 -6 -30 0 -15 6 -25 6 -25 0 0 -5 -12 -5 -27 -1
-16 4 -40 4 -55 0 -16 -4 -28 -4 -28 0 0 3 -17 5 -37 4 -69 -5 -104 -5 -110 0
-3 3 -16 2 -29 -3 -15 -6 -24 -6 -24 0 0 6 -9 6 -25 0 -15 -6 -26 -6 -30 0 -4
6 -13 7 -23 1 -11 -6 -24 -6 -34 0 -10 6 -19 6 -22 0 -4 -5 -18 -6 -34 -2 -15
5 -37 4 -50 0 -13 -5 -22 -4 -22 1 0 6 -9 6 -25 0 -15 -6 -26 -6 -30 0 -4 6
-13 7 -23 1 -11 -6 -24 -6 -34 0 -11 6 -19 6 -23 -1 -4 -6 -11 -8 -16 -4 -13
8 -103 9 -115 1 -5 -3 -16 -2 -23 3 -8 4 -27 4 -42 0 -17 -5 -31 -5 -35 1 -4
7 -10 6 -18 0 -7 -6 -17 -6 -26 -1 -8 5 -18 6 -24 3 -14 -9 -67 -9 -73 0 -2 4
-13 3 -23 -3 -13 -7 -21 -7 -25 0 -4 7 -12 7 -23 1 -10 -6 -23 -6 -34 0 -12 6
-18 6 -18 0 0 -6 -11 -6 -27 -2 -16 4 -40 4 -55 0 -16 -4 -30 -3 -34 2 -3 5
-13 5 -24 -1 -13 -7 -21 -7 -25 0 -4 6 -13 7 -24 1 -10 -6 -23 -6 -31 -1 -8 5
-21 5 -30 0 -9 -5 -23 -4 -32 1 -10 6 -19 6 -22 0 -4 -5 -18 -6 -34 -2 -15 5
-37 4 -50 0 -13 -5 -22 -4 -22 1 0 6 -9 6 -25 0 -15 -6 -26 -6 -30 0 -4 6 -13
7 -23 1 -11 -6 -24 -6 -34 0 -10 6 -19 6 -22 0 -4 -5 -18 -6 -34 -2 -15 5 -37
4 -50 0 -13 -5 -22 -4 -22 1 0 6 -9 6 -25 0 -15 -6 -26 -6 -30 0 -4 6 -13 7
-23 1 -11 -6 -24 -6 -34 0 -11 6 -19 6 -23 -1 -4 -6 -11 -8 -16 -4 -13 8 -107
9 -115 1 -4 -3 -14 -2 -23 3 -10 5 -23 5 -31 0 -8 -5 -21 -5 -31 1 -11 5 -20
5 -24 0 -3 -5 -17 -6 -33 -2 -15 5 -37 4 -50 0 -13 -5 -22 -4 -22 1 0 6 -9 6
-25 0 -15 -6 -26 -6 -30 0 -4 6 -13 7 -23 1 -11 -6 -24 -6 -34 0 -10 6 -19 6
-22 0 -4 -5 -18 -6 -34 -2 -15 5 -37 4 -50 0 -13 -5 -22 -4 -22 1 0 6 -9 6
-25 0 -15 -6 -26 -6 -30 0 -4 6 -13 7 -23 1 -11 -6 -24 -6 -34 0 -10 6 -19 6
-22 0 -4 -5 -18 -6 -34 -2 -15 5 -37 4 -50 0 -13 -5 -22 -4 -22 1 0 6 -9 6
-25 0 -16 -6 -25 -6 -25 0 0 6 -9 6 -25 0 -15 -6 -26 -6 -30 0 -4 7 -13 6 -25
0 -13 -7 -21 -7 -25 0 -4 6 -13 7 -23 1 -11 -6 -24 -6 -35 0 -11 7 -17 7 -17
0 0 -6 -11 -7 -27 -2 -16 4 -40 4 -55 0 -16 -4 -30 -3 -34 2 -3 5 -13 5 -24
-1 -13 -7 -21 -7 -25 0 -4 6 -13 7 -23 1 -11 -6 -24 -6 -35 0 -11 7 -17 7 -17
0 0 -6 -11 -7 -27 -2 -16 4 -40 4 -55 0 -16 -4 -30 -4 -32 0 -6 8 -60 6 -75
-3 -5 -4 -13 -2 -16 4 -4 7 -11 8 -18 2 -7 -5 -21 -6 -32 -2 -11 4 -30 4 -42
-1 -15 -5 -23 -5 -23 2 0 6 -7 6 -19 -1 -14 -7 -22 -7 -26 0 -4 7 -11 7 -18 2
-7 -5 -21 -6 -32 -2 -11 4 -30 4 -42 -1 -15 -5 -23 -5 -23 2 0 6 -7 6 -19 -1
-14 -7 -22 -7 -26 0 -4 7 -11 7 -18 2 -7 -5 -21 -6 -32 -2 -11 4 -30 4 -42 -1
-15 -5 -23 -5 -23 2 0 6 -6 6 -18 0 -13 -7 -22 -7 -29 0 -8 8 -13 8 -17 0 -4
-7 -15 -7 -30 -1 -13 5 -26 7 -29 4 -9 -9 -62 -11 -79 -2 -10 5 -19 4 -23 -2
-4 -6 -15 -6 -30 0 -14 5 -25 6 -25 2 0 -9 -65 -6 -80 3 -6 3 -10 2 -10 -4 0
-7 -8 -7 -25 -1 -15 6 -25 6 -25 0 0 -5 -12 -5 -27 -1 -16 4 -40 4 -55 0 -17
-4 -28 -3 -28 2 0 6 -6 7 -17 0 -10 -5 -26 -5 -40 0 -14 5 -23 5 -23 -1 0 -6
-9 -6 -25 0 -15 6 -25 6 -25 0 0 -5 -12 -5 -27 -1 -16 4 -40 4 -55 0 -17 -4
-28 -3 -28 2 0 6 -6 7 -17 0 -10 -5 -26 -5 -40 0 -14 5 -23 5 -23 -1 0 -6 -9
-6 -25 0 -15 6 -25 6 -25 0 0 -5 -12 -5 -27 -1 -16 4 -40 4 -56 0 -16 -4 -27
-3 -27 2 0 6 -6 7 -17 0 -10 -5 -26 -5 -40 0 -14 5 -23 5 -23 -1 0 -6 -9 -6
-25 0 -15 6 -25 6 -25 0 0 -5 -12 -5 -28 -1 -15 4 -39 4 -55 0 -15 -4 -27 -4
-27 1 0 4 -16 4 -35 0 -19 -4 -35 -4 -35 1 0 5 -11 4 -25 -1 -16 -6 -25 -6
-25 1 0 6 -6 6 -18 0 -11 -6 -24 -6 -35 0 -11 6 -24 6 -36 -1 -14 -7 -22 -7
-26 0 -4 7 -11 7 -18 2 -7 -5 -21 -6 -32 -2 -11 4 -30 4 -42 -1 -15 -5 -23 -5
-23 2 0 6 -7 6 -19 -1 -14 -7 -22 -7 -26 0 -4 7 -11 7 -18 2 -7 -5 -21 -6 -32
-2 -11 4 -30 4 -42 -1 -15 -5 -23 -5 -23 2 0 6 -7 6 -19 -1 -14 -7 -22 -7 -26
0 -4 7 -11 7 -18 2 -7 -5 -21 -6 -32 -2 -11 4 -30 4 -42 -1 -15 -5 -23 -5 -23
2 0 6 -7 6 -19 -1 -14 -7 -22 -7 -26 0 -4 7 -11 7 -18 2 -7 -5 -21 -6 -32 -2
-11 4 -30 4 -42 -1 -13 -5 -34 -4 -48 1 -14 5 -25 6 -25 1 0 -5 -8 -8 -17 -7
-28 4 -135 -22 -168 -41 -16 -9 -32 -16 -35 -15 -13 4 -114 -63 -164 -109 -47
-43 -140 -167 -141 -188 -1 -3 -9 -21 -18 -38 -10 -18 -15 -33 -11 -33 4 0 1
-7 -6 -15 -6 -8 -9 -19 -6 -24 4 -5 3 -12 -2 -15 -4 -2 -9 -19 -12 -38 -6 -51
-4 -220 4 -248 3 -14 8 -37 11 -52 3 -15 24 -65 48 -110 39 -77 123 -176 197
-232 27 -20 164 -86 189 -91 9 -2 16 -4 16 -5 0 -2 53 -9 102 -14 23 -2 47 -7
52 -11 6 -3 11 -2 11 4 0 7 8 7 25 1 16 -6 25 -6 25 0 0 6 9 6 25 0 15 -6 25
-6 25 0 0 5 12 5 28 1 15 -4 39 -4 54 0 17 4 28 3 28 -2 0 -6 6 -7 17 0 10 5
26 5 40 0 14 -5 23 -5 23 1 0 6 9 6 25 0 15 -6 25 -6 25 0 0 5 12 5 28 1 15
-4 39 -4 55 0 15 4 27 4 27 -1 0 -4 16 -4 35 0 19 4 35 4 35 -1 0 -5 11 -4 25
1 16 6 25 6 25 -1 0 -6 6 -6 18 0 11 6 24 6 35 0 11 -6 24 -6 36 1 14 7 22 7
26 0 4 -7 11 -7 18 -2 7 5 21 6 32 2 11 -4 30 -4 43 1 14 5 22 5 22 -2 0 -6 7
-6 19 1 14 7 22 7 26 0 4 -7 11 -7 18 -2 7 5 21 6 32 2 11 -4 30 -4 42 1 15 5
23 5 23 -2 0 -6 7 -6 19 1 14 7 22 7 26 0 4 -7 11 -7 18 -2 7 5 21 6 32 2 11
-4 30 -4 42 1 15 5 23 5 23 -2 0 -6 7 -6 19 1 14 7 22 7 26 0 4 -7 11 -7 18
-2 7 5 21 6 32 2 11 -4 30 -4 43 1 14 5 22 5 22 -2 0 -6 7 -6 19 1 14 7 22 7
26 0 4 -7 11 -7 18 -2 7 5 21 6 32 2 11 -4 30 -4 43 1 14 5 22 5 22 -2 0 -6 7
-6 19 1 14 7 22 7 26 0 4 -7 11 -7 18 -2 7 5 21 6 32 2 11 -4 30 -4 43 1 14 5
22 5 22 -2 0 -6 7 -6 19 1 14 7 22 7 26 0 4 -7 11 -7 18 -2 7 5 21 6 32 2 11
-4 30 -4 43 1 14 5 22 5 22 -2 0 -6 6 -6 18 0 13 7 22 7 29 0 8 -8 13 -8 17 0
4 7 15 7 30 1 13 -5 26 -7 29 -4 9 9 62 11 79 2 10 -5 19 -4 23 2 4 6 15 6 30
0 14 -5 25 -6 25 -2 0 9 65 6 80 -3 6 -3 10 -2 10 4 0 7 8 7 25 1 15 -6 25 -6
25 0 0 5 12 5 28 1 15 -4 39 -4 55 0 16 4 27 3 27 -2 0 -6 6 -7 17 0 10 5 26
5 40 0 14 -5 23 -5 23 1 0 6 9 6 25 0 15 -6 25 -6 25 0 0 5 12 5 28 1 15 -4
39 -4 55 0 16 4 27 3 27 -2 0 -6 6 -7 17 0 10 5 26 5 40 0 14 -5 23 -5 23 1 0
6 9 6 25 0 15 -6 25 -6 25 0 0 5 12 5 28 1 15 -4 39 -4 55 0 16 4 27 3 27 -2
0 -6 6 -7 17 0 10 5 26 5 40 0 14 -5 23 -5 23 1 0 6 9 6 25 0 15 -6 25 -6 25
0 0 5 12 5 28 1 15 -4 39 -4 55 0 15 4 27 4 27 -1 0 -4 16 -4 35 0 19 4 35 4
35 -1 0 -5 11 -4 25 1 16 6 25 6 25 -1 0 -6 6 -6 18 0 11 6 24 6 35 0 11 -6
24 -6 36 1 14 7 22 7 26 0 4 -7 11 -7 18 -2 7 5 21 6 32 2 11 -4 30 -4 43 1
14 5 22 5 22 -2 0 -6 7 -6 19 1 14 7 22 7 26 0 4 -7 11 -7 18 -2 7 5 21 6 32
2 11 -4 30 -4 43 1 14 5 22 5 22 -2 0 -6 7 -6 19 1 14 7 22 7 26 0 4 -7 11 -7
18 -2 7 5 21 6 32 2 11 -4 30 -4 43 1 14 5 22 5 22 -2 0 -6 6 -6 18 0 13 7 22
7 29 0 8 -8 13 -8 17 0 4 7 15 7 30 1 13 -5 26 -6 29 -4 8 9 81 9 94 1 6 -4
14 -3 18 3 4 7 12 7 25 0 10 -6 21 -7 23 -3 6 9 64 9 73 0 4 -3 15 -2 25 3 12
7 20 7 24 0 4 -6 13 -7 23 -1 11 6 24 6 35 0 11 -7 17 -7 17 0 0 6 11 7 28 2
15 -4 39 -4 54 0 16 4 30 3 34 -2 3 -5 13 -5 24 1 13 7 21 7 25 0 4 -6 13 -7
24 -1 10 6 23 6 31 1 8 -5 21 -5 30 0 9 5 23 4 32 -1 10 -6 19 -6 22 0 4 5 18
6 34 2 15 -5 37 -4 50 0 13 5 22 4 22 -1 0 -6 9 -6 25 0 15 6 26 6 30 -1 4 -6
13 -6 23 0 10 6 23 6 34 0 10 -5 19 -5 23 0 3 5 17 6 33 2 15 -5 37 -4 50 0
13 5 22 4 22 -1 0 -6 9 -6 25 0 15 6 26 6 30 0 4 -6 13 -7 23 -1 11 6 24 6 34
0 11 -6 19 -6 23 1 4 6 11 8 16 4 13 -8 103 -9 115 -1 5 3 16 2 23 -3 8 -4 27
-4 42 0 17 5 31 5 35 -1 4 -7 10 -6 18 0 7 6 17 6 26 1 8 -5 18 -6 24 -3 14 9
67 9 73 0 2 -4 13 -3 23 3 13 7 21 7 25 0 4 -7 12 -7 23 -1 10 6 23 6 34 0 12
-6 18 -6 18 0 0 6 11 6 28 2 15 -4 39 -4 54 0 16 4 30 3 34 -2 3 -5 13 -5 24
1 13 7 21 7 25 0 4 -6 13 -7 23 -1 10 5 24 6 33 1 8 -5 21 -5 29 0 8 5 21 5
31 -1 11 -5 20 -5 24 0 3 5 17 6 33 2 15 -5 37 -4 50 0 13 5 22 4 22 -1 0 -6
9 -6 25 0 15 6 26 6 30 0 4 -6 13 -7 23 -1 11 6 24 6 34 0 11 -6 19 -6 23 1 4
7 12 7 25 0 13 -7 21 -7 25 0 4 7 12 7 25 0 11 -6 21 -6 24 -1 3 5 15 7 27 4
16 -5 -54 -80 -410 -437 -236 -237 -440 -445 -453 -461 -34 -45 -88 -144 -92
-169 -1 -6 -4 -15 -8 -21 -14 -23 -36 -208 -28 -235 0 -3 3 -25 6 -50 4 -45
17 -94 36 -140 21 -52 67 -138 83 -156 6 -6 24 -26 40 -45 69 -78 183 -150
290 -183 43 -13 149 -30 180 -28 106 5 192 24 280 63 29 13 114 66 125 78 3 3
24 23 47 43 23 20 39 39 35 42 -3 3 -1 6 4 6 10 0 867 853 884 880 5 8 10 12
10 9 0 -3 195 188 433 425 238 237 431 434 429 438 -1 4 6 10 15 13 10 4 57
50 105 102 86 94 158 214 173 288 3 17 9 44 13 60 8 37 8 200 -1 240 -11 53
-20 80 -30 93 -5 6 -6 12 -3 12 4 0 -10 32 -31 72 -48 91 -13 55 -1143 1183
-1063 1061 -948 948 -985 969 -17 9 -37 21 -45 26 -12 9 -83 40 -100 45 -3 1
-12 4 -20 8 -48 19 -266 37 -280 24z"/>
<path d="M3189 5126 c-2 -2 -27 -6 -54 -10 -77 -9 -119 -18 -132 -29 -7 -5
-13 -7 -13 -3 0 4 -36 -12 -80 -35 -53 -27 -107 -66 -158 -114 -149 -141
-1962 -1960 -1988 -1995 -32 -43 -94 -168 -94 -191 0 -8 -3 -19 -7 -22 -23
-24 -23 -260 0 -335 22 -71 68 -172 78 -172 5 0 9 -7 9 -17 0 -9 449 -466 998
-1016 548 -549 1002 -1003 1007 -1008 88 -81 195 -138 310 -166 60 -14 215
-11 281 6 78 20 194 69 194 82 0 5 6 9 14 9 13 0 133 112 167 156 18 23 83
156 94 192 3 12 8 34 10 50 2 15 4 27 5 27 2 0 11 82 11 100 1 22 -13 123 -22
164 -12 55 -68 174 -103 221 -14 19 -220 229 -457 466 -258 259 -425 434 -417
436 7 3 23 1 36 -3 13 -5 22 -5 22 2 0 6 7 6 19 -1 13 -7 22 -7 26 0 4 7 12 7
24 0 10 -5 21 -7 24 -3 9 8 87 9 87 1 0 -4 11 -3 25 2 16 6 25 6 25 -1 0 -6 6
-6 18 0 11 6 24 6 35 0 11 -6 24 -6 36 1 14 7 22 7 26 0 4 -7 11 -7 18 -2 7 5
21 6 32 2 11 -4 30 -4 43 1 14 5 22 5 22 -2 0 -6 7 -6 19 1 14 7 22 7 26 0 4
-7 11 -7 18 -2 7 5 21 6 32 2 11 -4 30 -4 43 1 14 5 22 5 22 -2 0 -6 7 -6 19
1 14 7 22 7 26 0 4 -7 11 -7 18 -2 7 5 21 6 32 2 11 -4 30 -4 43 1 14 5 22 5
22 -2 0 -6 6 -6 18 0 13 7 22 7 29 0 8 -8 13 -8 17 0 4 7 15 7 30 1 13 -5 26
-7 29 -4 9 9 62 11 79 2 9 -4 19 -4 23 1 3 5 17 6 33 2 15 -5 37 -4 50 0 13 5
22 4 22 -1 0 -6 9 -6 25 0 15 6 26 6 30 0 4 -6 13 -7 23 -1 11 6 24 6 34 0 10
-6 19 -6 22 0 4 5 18 6 34 2 15 -5 37 -4 50 0 13 5 22 4 22 -1 0 -6 9 -6 25 0
15 6 26 6 30 0 4 -6 13 -7 23 -1 11 6 24 6 34 0 10 -6 19 -6 22 0 4 5 18 6 34
2 15 -5 37 -4 50 0 13 5 22 4 22 -1 0 -6 9 -6 25 0 16 6 25 6 25 0 0 -6 9 -6
25 0 15 6 26 6 30 0 4 -7 13 -6 25 0 13 7 21 7 25 0 4 -6 13 -7 23 -1 11 6 24
6 35 0 11 -7 17 -7 17 0 0 6 11 7 28 2 15 -4 39 -4 54 0 16 4 30 3 34 -2 3 -5
13 -5 24 1 13 7 21 7 25 0 4 -6 13 -7 23 -1 11 6 24 6 35 0 11 -7 17 -7 17 0
0 6 11 7 28 2 15 -4 39 -4 54 0 16 4 30 4 33 0 2 -5 25 -5 50 -1 25 4 48 3 51
-2 3 -5 11 -5 18 1 7 6 17 6 26 1 8 -5 18 -6 24 -3 14 9 67 9 73 0 2 -4 13 -3
23 3 13 7 21 7 25 0 4 -6 13 -7 23 -1 11 6 24 6 35 0 11 -7 17 -7 17 0 0 6 11
7 28 2 15 -4 39 -4 54 0 16 4 30 3 34 -2 3 -5 13 -5 24 1 13 7 21 7 25 0 4 -6
13 -7 24 -1 10 6 23 6 31 1 8 -5 21 -5 30 0 9 5 23 4 32 -1 10 -6 19 -6 22 0
4 5 18 6 34 2 15 -5 37 -4 50 0 13 5 22 4 22 -1 0 -6 9 -6 25 0 15 6 26 6 30
0 4 -6 13 -7 23 -1 11 6 24 6 34 0 10 -6 19 -6 22 0 4 5 18 6 34 2 15 -5 37
-4 50 0 13 5 22 4 22 -1 0 -6 9 -6 25 0 15 6 26 6 30 0 4 -6 13 -7 23 -1 11 6
24 6 34 0 11 -6 19 -6 23 1 4 6 11 8 16 4 13 -8 103 -9 115 -1 5 3 16 2 23 -3
8 -4 27 -4 42 0 17 5 31 5 35 -1 4 -7 10 -6 18 0 7 6 17 6 26 1 8 -5 18 -6 24
-3 14 9 67 9 73 0 2 -4 13 -3 23 3 13 7 21 7 25 0 4 -6 13 -7 23 -1 11 6 24 6
35 0 11 -7 17 -7 17 0 0 6 11 7 28 2 15 -4 39 -4 54 0 16 4 30 3 34 -2 3 -5
13 -5 24 1 13 7 21 7 25 0 4 -6 13 -7 24 -1 10 6 23 6 31 1 8 -5 21 -5 30 0 9
5 23 4 32 -1 10 -6 19 -6 22 0 4 5 18 6 34 2 15 -5 37 -4 50 0 13 5 22 4 22
-1 0 -6 9 -6 25 0 15 6 26 6 30 0 4 -6 13 -7 23 -1 11 6 24 6 34 0 10 -6 19
-6 22 0 4 5 18 6 34 2 15 -5 37 -4 50 0 13 5 22 4 22 -1 0 -6 9 -6 25 0 15 6
26 6 30 0 4 -6 13 -7 23 -1 11 6 24 6 34 0 11 -6 19 -6 23 1 4 6 11 8 16 4 13
-8 107 -9 115 -1 4 3 14 2 23 -3 10 -5 23 -5 31 0 8 5 21 5 31 -1 11 -5 20 -5
24 0 3 5 17 6 33 2 15 -5 37 -4 50 0 13 5 22 4 22 -1 0 -6 9 -6 25 0 15 6 26
6 30 0 4 -6 13 -7 23 -1 11 6 24 6 34 0 10 -6 19 -6 22 0 4 5 18 6 34 2 15 -5
37 -4 50 0 13 5 22 4 22 -1 0 -6 9 -6 25 0 15 6 26 6 30 0 4 -6 13 -7 23 -1
11 6 24 6 34 0 10 -6 19 -6 22 0 4 5 18 6 34 2 15 -5 37 -4 50 0 13 5 22 4 22
-1 0 -6 9 -6 25 0 16 6 25 6 25 0 0 -6 9 -6 25 0 15 6 26 6 30 0 4 -7 13 -6
25 0 13 7 21 7 25 0 4 -6 13 -7 23 -1 11 6 24 6 35 0 11 -7 17 -7 17 0 0 6 11
7 28 2 15 -4 39 -4 54 0 16 4 30 3 34 -2 3 -5 13 -5 24 1 13 7 21 7 25 0 4 -6
13 -7 23 -1 11 6 24 6 35 0 11 -7 17 -7 17 0 0 6 11 7 28 2 15 -4 39 -4 54 0
16 4 30 4 32 0 3 -4 20 -6 38 -4 18 2 54 6 80 8 51 4 151 30 183 48 11 6 23
11 26 12 21 1 145 94 188 141 47 51 108 143 111 169 1 6 8 21 16 35 27 48 44
152 39 250 -2 52 -6 102 -8 110 -2 8 -8 30 -12 48 -4 18 -12 35 -16 38 -5 3
-7 10 -3 15 3 6 -2 19 -12 30 -9 10 -14 19 -11 19 18 0 -66 113 -129 176 -97
96 -241 168 -352 177 -12 1 -22 5 -22 10 0 4 -6 5 -12 1 -17 -11 -79 -11 -100
-2 -9 5 -19 4 -23 -1 -3 -5 -17 -6 -33 -2 -15 5 -37 4 -50 0 -13 -5 -22 -4
-22 1 0 6 -9 6 -25 0 -15 -6 -26 -6 -30 0 -4 6 -13 7 -23 1 -11 -6 -24 -6 -34
0 -10 6 -19 6 -22 0 -4 -5 -18 -6 -34 -2 -15 5 -37 4 -50 0 -13 -5 -22 -4 -22
1 0 6 -9 6 -25 0 -15 -6 -26 -6 -30 0 -4 6 -13 7 -23 1 -11 -6 -24 -6 -34 0
-10 6 -19 6 -22 0 -4 -5 -18 -6 -34 -2 -15 5 -37 4 -50 0 -13 -5 -22 -4 -22 1
0 6 -9 6 -25 0 -16 -6 -25 -6 -25 0 0 6 -9 6 -25 0 -15 -6 -26 -6 -30 0 -4 7
-13 6 -25 0 -13 -7 -21 -7 -25 0 -4 6 -13 7 -23 1 -11 -6 -24 -6 -35 0 -11 7
-17 7 -17 0 0 -6 -11 -7 -27 -2 -16 4 -40 4 -55 0 -16 -4 -30 -3 -34 2 -3 5
-13 5 -24 -1 -13 -7 -21 -7 -25 0 -4 6 -13 7 -23 1 -11 -6 -24 -6 -35 0 -11 7
-17 7 -17 0 0 -6 -11 -7 -27 -2 -16 4 -40 4 -55 0 -16 -4 -30 -4 -33 0 -2 5
-25 5 -50 1 -25 -4 -48 -3 -51 2 -3 5 -11 5 -18 -1 -7 -6 -17 -6 -26 -1 -8 5
-18 6 -24 3 -14 -9 -67 -9 -73 0 -2 4 -13 3 -23 -3 -13 -7 -21 -7 -25 0 -4 6
-13 7 -23 1 -11 -6 -24 -6 -35 0 -11 7 -17 7 -17 0 0 -6 -11 -7 -27 -2 -16 4
-40 4 -55 0 -16 -4 -30 -3 -34 2 -3 5 -13 5 -24 -1 -13 -7 -21 -7 -25 0 -4 6
-13 7 -24 1 -10 -6 -23 -6 -31 -1 -8 5 -21 5 -30 0 -9 -5 -23 -4 -32 1 -10 6
-19 6 -22 0 -4 -5 -18 -6 -34 -2 -15 5 -37 4 -50 0 -13 -5 -22 -4 -22 1 0 6
-9 6 -25 0 -15 -6 -26 -6 -30 0 -4 6 -13 7 -23 1 -11 -6 -24 -6 -34 0 -10 6
-19 6 -22 0 -4 -5 -18 -6 -34 -2 -15 5 -37 4 -50 0 -13 -5 -22 -4 -22 1 0 6
-9 6 -25 0 -15 -6 -26 -6 -30 0 -4 6 -13 7 -23 1 -11 -6 -24 -6 -34 0 -11 6
-19 6 -23 -1 -4 -6 -11 -8 -16 -4 -13 8 -103 9 -115 1 -5 -3 -16 -2 -23 3 -8
4 -27 4 -42 0 -17 -5 -31 -5 -35 1 -4 7 -10 6 -18 0 -7 -6 -17 -6 -26 -1 -8 5
-18 6 -24 3 -14 -9 -67 -9 -73 0 -2 4 -13 3 -23 -3 -13 -7 -21 -7 -25 0 -4 6
-13 7 -23 1 -11 -6 -24 -6 -35 0 -11 7 -17 7 -17 0 0 -6 -11 -7 -27 -2 -16 4
-40 4 -55 0 -16 -4 -30 -3 -34 2 -3 5 -13 5 -24 -1 -13 -7 -21 -7 -25 0 -4 6
-13 7 -24 1 -10 -6 -23 -6 -31 -1 -8 5 -21 5 -30 0 -9 -5 -23 -4 -32 1 -10 6
-19 6 -22 0 -4 -5 -18 -6 -34 -2 -15 5 -37 4 -50 0 -13 -5 -22 -4 -22 1 0 6
-9 6 -25 0 -15 -6 -26 -6 -30 0 -4 6 -13 7 -23 1 -11 -6 -24 -6 -34 0 -10 6
-19 6 -22 0 -4 -5 -18 -6 -34 -2 -15 5 -37 4 -50 0 -13 -5 -22 -4 -22 1 0 6
-9 6 -25 0 -15 -6 -26 -6 -30 0 -4 6 -13 7 -23 1 -11 -6 -24 -6 -34 0 -11 6
-19 6 -23 -1 -4 -6 -11 -8 -16 -4 -13 8 -107 9 -115 1 -4 -3 -15 -2 -25 4 -13
6 -25 6 -38 -1 -14 -7 -22 -7 -26 0 -4 7 -11 7 -18 2 -7 -5 -21 -6 -32 -2 -11
4 -30 4 -42 -1 -15 -5 -23 -5 -23 2 0 6 -7 6 -19 -1 -14 -7 -22 -7 -26 0 -4 7
-11 7 -18 2 -7 -5 -21 -6 -32 -2 -11 4 -30 4 -42 -1 -15 -5 -23 -5 -23 2 0 6
-7 6 -19 -1 -14 -7 -22 -7 -26 0 -4 7 -11 7 -18 2 -7 -5 -21 -6 -32 -2 -11 4
-30 4 -42 -1 -15 -5 -23 -5 -23 2 0 6 -6 6 -18 0 -13 -7 -22 -7 -29 0 -8 8
-13 8 -17 0 -4 -7 -15 -7 -30 -1 -13 5 -26 7 -29 4 -9 -9 -62 -11 -79 -2 -10
5 -19 4 -23 -2 -4 -6 -15 -6 -30 0 -14 5 -25 6 -25 2 0 -9 -65 -6 -80 3 -6 3
-10 2 -10 -4 0 -7 -8 -7 -25 -1 -15 6 -25 6 -25 0 0 -5 -12 -5 -27 -1 -16 4
-40 4 -55 0 -17 -4 -28 -3 -28 2 0 6 -6 7 -17 0 -10 -5 -26 -5 -40 0 -14 5
-23 5 -23 -1 0 -6 -9 -6 -25 0 -15 6 -25 6 -25 0 0 -5 -12 -5 -27 -1 -16 4
-40 4 -55 0 -17 -4 -28 -3 -28 2 0 6 -6 7 -17 0 -10 -5 -26 -5 -40 0 -14 5
-23 5 -23 -1 0 -6 -9 -6 -25 0 -15 6 -25 6 -25 0 0 -5 -12 -5 -27 -1 -16 4
-40 4 -55 0 -17 -4 -28 -3 -28 2 0 6 -6 7 -17 0 -10 -5 -26 -5 -40 0 -14 5
-23 5 -23 -1 0 -6 -9 -6 -25 0 -15 6 -25 6 -25 0 0 -5 -12 -5 -27 -1 -16 4
-40 4 -55 0 -16 -4 -28 -4 -28 1 0 4 -16 4 -35 0 -19 -4 -35 -4 -35 1 0 5 -11
4 -25 -1 -16 -6 -25 -6 -25 1 0 6 -6 6 -18 0 -11 -6 -24 -6 -35 0 -11 6 -23 6
-35 0 -13 -7 -22 -7 -29 0 -8 8 -13 8 -17 0 -4 -6 -15 -7 -29 -2 -12 5 -31 5
-42 1 -11 -4 -29 -4 -40 0 -11 4 -29 4 -40 0 -11 -4 -25 -3 -32 2 -7 5 -14 5
-18 -2 -4 -7 -12 -7 -26 0 -14 8 -19 7 -19 -1 0 -8 -4 -9 -13 0 -10 7 -17 7
-24 0 -6 -6 -13 -7 -16 -2 -3 5 186 200 420 433 234 234 444 452 467 485 40
56 82 142 92 186 2 11 6 29 9 42 13 54 23 167 15 167 -3 0 -5 20 -6 45 -2 84
-70 259 -121 313 -10 10 -27 29 -39 43 -32 37 -96 92 -129 111 -116 64 -188
89 -276 93 -32 2 -63 6 -67 9 -5 3 -11 4 -13 2z"/>
</g>
</svg>
